<?xml version="1.0" encoding="utf-8"?>
<!-- Generator: Adobe Illustrator 19.2.1, SVG Export Plug-In . SVG Version: 6.00 Build 0)  -->
<svg version="1.1" id="Layer_1" xmlns="http://www.w3.org/2000/svg" xmlns:xlink="http://www.w3.org/1999/xlink" x="0px" y="0px"
	 viewBox="0 0 200 200" style="enable-background:new 0 0 200 200;" xml:space="preserve">
<style type="text/css">
	.st0{fill:#404344;}
	.st1{fill:#37B34A;}
</style>
<g>
	<path class="st0" d="M49.3,135.5c0-5.7,2.4-10.6,9.2-10.6c6.9,0,9.2,4.9,9.2,10.6c0,5.8-2.3,10.6-9.2,10.6
		C51.7,146.1,49.3,141.2,49.3,135.5 M53.7,135.5c0,3.4,0.7,6.5,4.9,6.5s4.9-3.2,4.9-6.5c0-3.4-0.7-6.5-4.9-6.5
		C54.3,128.9,53.7,132.1,53.7,135.5 M158,125.3l3.8,6.3l3.8-6.3h5.1l-6.1,9.7l6.7,10.5h-5.1l-4.3-7.1l-4.3,7.1h-5.1l6.7-10.5
		l-6.1-9.7H158z M139.4,133.4h8v3.9h-8v4.2h9.4v4.1h-13.7v-20.3h13.7v4.1h-9.4V133.4z M121,145.6v-16.2h-5.6v-4.1h15.5v4.1h-5.6
		v16.2H121z M98.7,145.6h-4.1v-20.2h4.3v12.5l8-12.5h4.1v20.2h-4.3v-12.5L98.7,145.6z M70.3,141.6c1.8,0.1,3-0.7,3.4-2.3
		c1.2-4.4,1.3-9.3,1.9-13.9h13v20.2h-4.3v-16.2h-4.9c-0.3,2.8-0.8,7.7-1.6,10.8c-0.9,3.5-3.8,5.6-7.6,5.5V141.6z M28.7,145.6v-20.2
		h15.8v20.2h-4.3v-16.2H33v16.2H28.7z"/>
	<path class="st0" d="M118.2,153.3l-2.2,6.2c-0.3,0.8-0.8,1.3-1.6,1.4c-0.2,0-0.5,0-0.7-0.1l0-0.8c0.2,0.1,0.5,0.1,0.7,0.1
		c0.4-0.1,0.7-0.4,0.8-0.8l0.3-0.8l-2.1-5.1h0.9l1.6,4.1l1.5-4.1L118.2,153.3L118.2,153.3z M121.9,181h-1.1l-1.8-2.3h-0.5v2.3h-0.8
		v-5.1h0.8v2.1h0.5l1.7-2.1h1l-2,2.5L121.9,181z M71.8,158.4h-1.1l-1.8-2.3h-0.5v2.3h-0.8v-5.1h0.8v2.1H69l1.7-2.1h1l-2,2.5
		L71.8,158.4z M109,155.9c0-0.7,0.5-1.7,1.7-1.7c1.2,0,1.5,0.7,1.5,1.8c0,1.1-0.5,1.8-1.6,1.8C109.4,157.8,109,156.9,109,155.9
		 M108.9,154.3c0.1-0.8,0.5-1.5,1-1.8c0.5-0.3,1.1-0.4,1.7-0.6c0.6-0.2,0.9-0.6,0.9-1.1h-0.8c0,0.1,0,0.4-0.4,0.5
		c-0.6,0.2-1.2,0.3-1.7,0.6c-1.3,0.8-1.5,2.4-1.4,3.7c0,1.5,0.7,2.9,2.4,2.9c1.5,0,2.5-1,2.5-2.6c0-1.6-0.7-2.5-2.2-2.5
		C110.1,153.5,109.3,153.8,108.9,154.3 M50.9,154.9c0-1.7,0.7-2.8,2.5-2.8c0.6,0,1.3,0.1,1.8,0.3l0-0.9c-0.6-0.2-1.2-0.2-1.8-0.2
		c-2.3,0-3.5,1.4-3.5,3.7c0,2.3,1.2,3.7,3.5,3.7c0.6,0,1.3-0.1,1.8-0.2l0-0.9c-0.5,0.2-1.2,0.3-1.8,0.3
		C51.6,157.7,50.9,156.6,50.9,154.9L50.9,154.9z M128.5,155.9c0-1.9,1.1-2.7,2.6-2.7c0.3,0,0.9,0.1,1.2,0.2l-0.1,0.7
		c-0.4-0.1-0.9-0.2-1.3-0.2c-0.9,0-1.6,0.6-1.6,2c0,1.4,0.7,1.9,1.6,2c0.4,0,0.9,0,1.3-0.1l0.1,0.7c-0.4,0.1-0.9,0.1-1.2,0.1
		C129.6,158.6,128.5,157.7,128.5,155.9 M110.3,181h-0.8v-4.4H108c-0.1,1.6-0.3,2.8-0.6,3.5c-0.3,0.7-0.7,1-1.6,0.9v-0.8
		c0.4,0,0.8-0.1,1-0.5c0.3-0.7,0.4-2,0.6-3.8h3V181z M132.6,178.5c0-1.1,0.4-1.9,1.6-1.9c1.2,0,1.6,0.8,1.6,1.9
		c0,1.1-0.4,1.9-1.6,1.9C132.9,180.4,132.6,179.6,132.6,178.5 M136.5,178.5c0-1.6-0.8-2.6-2.4-2.6c-1.6,0-2.4,1.1-2.4,2.6
		c0,1.6,0.8,2.6,2.4,2.6C135.7,181.1,136.5,180,136.5,178.5 M123.1,178.5c0-1.1,0.4-1.9,1.6-1.9c1.2,0,1.6,0.8,1.6,1.9
		c0,1.1-0.4,1.9-1.6,1.9C123.5,180.4,123.1,179.6,123.1,178.5 M127.1,178.5c0-1.6-0.8-2.6-2.4-2.6c-1.6,0-2.4,1.1-2.4,2.6
		c0,1.6,0.8,2.6,2.4,2.6C126.3,181.1,127.1,180,127.1,178.5 M66,158.4h-0.8v-2.3h-2.6v2.3h-0.8v-5.1h0.8v2.1h2.6v-2.1H66V158.4z
		 M75.9,154h-1.5v4.4h-0.8V154H72v-0.7h3.9V154z M78.9,156.3h-2.7v-0.8h2.7V156.3z M86,158.4h-0.8v-6.4h-3.7v6.4h-0.8v-7.1H86
		L86,158.4L86,158.4z M96.3,154h-1.5v4.4h-0.8V154h-1.5v-0.7h3.9V154z M128.2,154H126v4.4h-0.8v-5.1h3V154z M137.6,158.4h-1.1
		l-1.8-2.3h-0.5v2.3h-0.8v-5.1h0.8v2.1h0.5l1.7-2.1h1l-2,2.5L137.6,158.4z M70.3,181h-0.8v-6.4h-3.7v6.4h-0.8v-7.1h5.4V181z
		 M80.5,176.6H79v4.4h-0.8v-4.4h-1.5v-0.7h3.9V176.6z M95.2,181v-7.1h2.5c1.2,0,2,0.6,1.9,1.9c0,0.7-0.4,1.2-1,1.5v0
		c0.8,0.2,1.3,0.9,1.3,1.7c0,1.3-1,2-2.2,2L95.2,181L95.2,181z M96,174.6v2.3h1.3c0.8,0,1.4-0.4,1.4-1.3c0-0.7-0.4-1-1.3-1H96z
		 M96,177.7v2.6h1.6c0.8,0,1.5-0.4,1.5-1.3c0-0.8-0.5-1.3-1.7-1.3H96z M131.4,176.6h-2v4.4h-0.8v-5.1h2.8V176.6z M91.9,156.1h-3.7
		c0,1.3,0.8,1.7,1.7,1.7c0.6,0,1.2-0.1,1.6-0.4l0,0.8c-0.5,0.2-1.2,0.3-1.7,0.3c-1.4,0-2.5-0.9-2.5-2.7c0-1.5,0.8-2.7,2.3-2.7
		C91.4,153.2,92,154.3,91.9,156.1L91.9,156.1z M91.1,155.4c0-1-0.6-1.5-1.4-1.5c-1,0-1.5,0.6-1.5,1.5H91.1z M101.2,156.1h-3.7
		c0,1.3,0.8,1.7,1.7,1.7c0.6,0,1.2-0.1,1.6-0.4l0,0.8c-0.5,0.2-1.2,0.3-1.7,0.3c-1.4,0-2.5-0.9-2.5-2.7c0-1.5,0.8-2.7,2.3-2.7
		C100.7,153.2,101.3,154.3,101.2,156.1 M100.4,155.4c0-1-0.6-1.5-1.4-1.5c-1,0-1.5,0.6-1.5,1.5H100.4z M76.1,178.7h-3.7
		c0,1.3,0.8,1.7,1.7,1.7c0.6,0,1.2-0.1,1.6-0.4l0,0.8c-0.5,0.2-1.2,0.3-1.7,0.3c-1.4,0-2.5-0.9-2.5-2.7c0-1.5,0.8-2.7,2.3-2.7
		C75.6,175.8,76.2,176.9,76.1,178.7L76.1,178.7z M75.3,178c0-1-0.6-1.5-1.4-1.5c-1,0-1.5,0.6-1.5,1.5H75.3z M105.4,178.7h-3.7
		c0,1.3,0.8,1.7,1.7,1.7c0.6,0,1.1-0.1,1.5-0.4l0,0.8c-0.5,0.2-1.1,0.3-1.6,0.3c-1.4,0-2.5-0.9-2.5-2.7c0-1.5,0.8-2.7,2.3-2.7
		C104.8,175.8,105.4,176.9,105.4,178.7L105.4,178.7z M104.5,178c0-1-0.6-1.5-1.4-1.5c-1,0-1.5,0.6-1.5,1.5H104.5z M145.6,151.7
		c0.2,0.3,0.6,0.5,1,0.5c0.4,0,0.8-0.2,1-0.5l0.5,0.4c-0.3,0.5-0.9,0.7-1.5,0.7c-0.6,0-1.1-0.2-1.5-0.7L145.6,151.7z M145.3,158.4
		h-0.8v-5.1h0.7v4c0.1-0.3,0.3-0.6,0.5-0.9l2.1-3.1h0.8v5.1H148v-4c-0.1,0.3-0.3,0.6-0.5,0.9L145.3,158.4z M139.4,158.4h-0.8v-5.1
		h0.7v4c0.1-0.3,0.3-0.6,0.5-0.9l2.1-3.1h0.8v5.1h-0.7v-4c-0.1,0.3-0.3,0.6-0.5,0.9L139.4,158.4z M112.7,181h-0.8v-5.1h0.7v4
		c0.1-0.3,0.3-0.6,0.5-0.9l2.1-3.1h0.8v5.1h-0.7v-4c-0.1,0.3-0.3,0.6-0.5,0.9L112.7,181z M82.1,180.4v2.9h-0.8v-7.4H82l0.1,0.7
		c0.5-0.6,1.2-0.8,1.8-0.7c1.5,0,2.1,1.3,2.1,2.7c-0.1,1.4-0.8,2.6-2.3,2.6C82.8,181.1,82.3,180.7,82.1,180.4 M82.1,178.5
		c0,1,0.3,1.9,1.5,1.9c1.1,0,1.5-1,1.6-2c0-1-0.3-2-1.5-2C82.4,176.5,82.1,177.5,82.1,178.5 M120,157.9v2.9h-0.8v-7.4h0.7l0.1,0.7
		c0.5-0.6,1.2-0.8,1.8-0.7c1.5,0,2.1,1.3,2.1,2.7c-0.1,1.4-0.8,2.6-2.3,2.6C120.7,158.5,120.2,158.1,120,157.9 M120,156
		c0,1,0.3,1.9,1.5,1.9c1.1,0,1.5-1,1.6-2c0-1-0.3-2-1.5-2C120.3,153.9,120,154.9,120,156 M103.2,157.9v2.9h-0.8v-7.4h0.7l0.1,0.7
		c0.5-0.6,1.2-0.8,1.8-0.7c1.5,0,2.1,1.3,2.1,2.7c-0.1,1.4-0.8,2.6-2.3,2.6C103.9,158.5,103.4,158.1,103.2,157.9 M103.2,156
		c0,1,0.3,1.9,1.5,1.9c1.1,0,1.5-1,1.6-2c0-1-0.3-2-1.5-2C103.5,153.9,103.2,154.9,103.2,156 M89.8,178.5v0.4c0,0.8-0.5,1.5-1.4,1.5
		c-0.5,0-0.9-0.3-1-0.8C87.4,178.4,88.6,178.5,89.8,178.5 M87,176.1l0,0.8c0.4-0.2,1.1-0.3,1.6-0.3c0.6,0,1.2,0.3,1.2,1.1v0.2
		c-1.9-0.1-3.2,0-3.2,1.7c0,1,0.7,1.5,1.6,1.5c0.7,0,1.2-0.3,1.6-0.7L90,181h0.7l0-3.3c0-1.4-0.9-1.8-1.9-1.9
		C88.2,175.8,87.4,175.9,87,176.1L87,176.1z M59.4,155.9v0.4c0,0.8-0.5,1.5-1.4,1.5c-0.5,0-0.9-0.3-1-0.8
		C57,155.8,58.2,155.9,59.4,155.9 M56.6,153.5l0,0.8c0.4-0.2,1.1-0.3,1.6-0.3c0.6,0,1.2,0.3,1.2,1.1v0.2c-1.9-0.1-3.2,0-3.2,1.7
		c0,1,0.7,1.5,1.6,1.5c0.7,0,1.2-0.3,1.6-0.7l0.1,0.6h0.7l0-3.3c0-1.4-0.9-1.8-1.9-1.9C57.8,153.2,57,153.3,56.6,153.5"/>
	<path class="st0" d="M66.2,169.7h-1l-1.3-2l-1.3,2h-1l1.8-2.6l-1.8-2.5h1l1.2,1.9l1.2-1.9h1l-1.8,2.5L66.2,169.7z M98.6,169.7h-1.1
		l-1.8-2.3h-0.5v2.3h-0.8v-5.1h0.8v2.1h0.5l1.7-2.1h1l-2,2.5L98.6,169.7z M106.6,163c0.2,0.3,0.6,0.5,1,0.5c0.4,0,0.8-0.2,1-0.5
		l0.5,0.4c-0.3,0.5-0.9,0.7-1.5,0.7c-0.6,0-1.1-0.2-1.5-0.7L106.6,163z M106.3,169.7h-0.8v-5.1h0.7v4c0.1-0.3,0.3-0.6,0.5-0.9
		l2.1-3.1h0.8v5.1H109v-4c-0.1,0.3-0.3,0.6-0.5,0.9L106.3,169.7z M100.4,169.7h-0.8v-5.1h0.7v4c0.1-0.3,0.3-0.6,0.5-0.9l2.1-3.1h0.8
		v5.1h-0.7v-4c-0.1,0.3-0.3,0.6-0.5,0.9L100.4,169.7z M73.8,169.7h-0.8v-5.1h0.7v4c0.1-0.3,0.3-0.6,0.5-0.9l2.1-3.1h0.8v5.1h-0.7v-4
		c-0.1,0.3-0.3,0.6-0.5,0.9L73.8,169.7z M153.6,169.7h-0.8v-5.1h0.7v4c0.1-0.3,0.3-0.6,0.5-0.9l2.1-3.1h0.8v5.1h-0.7v-4
		c-0.1,0.3-0.3,0.6-0.5,0.9L153.6,169.7z M147.9,167.2c0-1.9,1.1-2.7,2.6-2.7c0.3,0,0.9,0.1,1.2,0.2l-0.1,0.7
		c-0.4-0.1-0.9-0.2-1.3-0.2c-0.9,0-1.6,0.6-1.6,2c0,1.4,0.7,1.9,1.6,2c0.4,0,0.9,0,1.3-0.1l0.1,0.7c-0.4,0.1-0.9,0.1-1.2,0.1
		C148.9,169.9,147.9,169,147.9,167.2L147.9,167.2z M89.6,167.2c0-1.9,1.1-2.7,2.6-2.7c0.3,0,0.9,0.1,1.2,0.2l-0.1,0.7
		c-0.4-0.1-0.9-0.2-1.3-0.2c-0.9,0-1.6,0.6-1.6,2c0,1.4,0.7,1.9,1.6,2c0.4,0,0.9,0,1.3-0.1l0.1,0.7c-0.4,0.1-0.9,0.1-1.2,0.1
		C90.7,169.9,89.6,169,89.6,167.2L89.6,167.2z M36.4,167.2c0-1.1,0.4-1.9,1.6-1.9c1.2,0,1.6,0.8,1.6,1.9c0,1.1-0.4,1.9-1.6,1.9
		C36.8,169.1,36.4,168.3,36.4,167.2 M40.4,167.2c0-1.6-0.8-2.6-2.4-2.6c-1.6,0-2.4,1.1-2.4,2.6c0,1.6,0.8,2.6,2.4,2.6
		C39.6,169.8,40.4,168.8,40.4,167.2 M45.5,169.7h-0.8v-4.4h-1.5c-0.1,1.6-0.3,2.8-0.6,3.5c-0.3,0.7-0.7,1-1.6,0.9V169
		c0.4,0,0.8-0.1,1-0.5c0.3-0.7,0.4-2,0.6-3.8h3V169.7z M56.3,165.3h-1.5v4.4h-0.8v-4.4h-1.5v-0.7h3.9V165.3z M71.3,169.7h-0.8v-2.3
		h-2.6v2.3h-0.8v-5.1h0.8v2.1h2.6v-2.1h0.8V169.7z M82.8,169.7H82v-2c-0.4,0.2-0.9,0.2-1.5,0.2c-0.9,0-1.7-0.5-1.7-1.8v-1.6h0.8v1.5
		c0,0.9,0.5,1.1,1.2,1.1c0.4,0,0.9-0.1,1.2-0.2v-2.4h0.8V169.7L82.8,169.7z M123.9,169.7h-0.8v-2.3h-2.6v2.3h-0.8v-5.1h0.8v2.1h2.6
		v-2.1h0.8V169.7z M131.5,169.7v-5.1h2.2c0.8,0,1.5,0.4,1.6,1.2c0,0.7-0.3,1.1-0.8,1.2c0.7,0.1,1.1,0.5,1.1,1.2
		c0,0.9-0.8,1.5-1.6,1.5H131.5L131.5,169.7z M132.3,165.3v1.4h1.2c0.7,0,0.9-0.3,0.9-0.8c0-0.4-0.2-0.7-0.8-0.7H132.3z M132.3,167.5
		v1.6h1.4c0.7,0,0.9-0.3,0.9-0.8c0-0.5-0.3-0.8-1.1-0.8H132.3z M161.9,165.3h-1.5v4.4h-0.8v-4.4H158v-0.7h3.9V165.3z M171.2,165.3
		h-1.5v4.4h-0.8v-4.4h-1.5v-0.7h3.9V165.3z M166.8,167.4h-3.7c0,1.3,0.8,1.7,1.7,1.7c0.6,0,1.2-0.1,1.6-0.4l0,0.8
		c-0.5,0.2-1.2,0.3-1.7,0.3c-1.4,0-2.5-0.9-2.5-2.7c0-1.5,0.8-2.7,2.3-2.7C166.3,164.5,166.9,165.6,166.8,167.4L166.8,167.4z
		 M166,166.7c0-1-0.6-1.5-1.4-1.5c-1,0-1.5,0.6-1.5,1.5H166z M141,167.4h-3.7c0,1.3,0.8,1.7,1.7,1.7c0.6,0,1.2-0.1,1.6-0.4l0,0.8
		c-0.5,0.2-1.2,0.3-1.7,0.3c-1.4,0-2.5-0.9-2.5-2.7c0-1.5,0.8-2.7,2.3-2.7C140.5,164.5,141.1,165.6,141,167.4L141,167.4z
		 M140.2,166.7c0-1-0.6-1.5-1.4-1.5c-1,0-1.5,0.6-1.5,1.5H140.2z M88.8,167.4H85c0,1.3,0.8,1.7,1.7,1.7c0.6,0,1.2-0.1,1.6-0.4l0,0.8
		c-0.5,0.2-1.2,0.3-1.7,0.3c-1.4,0-2.5-0.9-2.5-2.7c0-1.5,0.8-2.7,2.3-2.7C88.2,164.5,88.8,165.6,88.8,167.4L88.8,167.4z
		 M87.9,166.7c0-1-0.6-1.5-1.4-1.5c-1,0-1.5,0.6-1.5,1.5H87.9z M61.2,167.4h-3.7c0,1.3,0.8,1.7,1.7,1.7c0.6,0,1.2-0.1,1.6-0.4l0,0.8
		c-0.5,0.2-1.2,0.3-1.7,0.3c-1.4,0-2.5-0.9-2.5-2.7c0-1.5,0.8-2.7,2.3-2.7C60.7,164.5,61.3,165.6,61.2,167.4L61.2,167.4z
		 M60.4,166.7c0-1-0.6-1.5-1.4-1.5c-1,0-1.5,0.6-1.5,1.5H60.4z M126.4,169.7h-0.8v-5.1h0.7v4c0.1-0.3,0.3-0.6,0.5-0.8l2.2-3.2h0.8
		v5.1h-0.7v-4c-0.1,0.3-0.3,0.6-0.5,0.8L126.4,169.7z M48,169.7h-0.8v-5.1h0.7v4c0.1-0.3,0.3-0.6,0.5-0.9l2.1-3.1h0.8v5.1h-0.7v-4
		c-0.1,0.3-0.3,0.6-0.5,0.9L48,169.7z M143,169.1v2.9h-0.8v-7.4h0.7l0.1,0.7c0.5-0.6,1.2-0.8,1.8-0.7c1.5,0,2.1,1.3,2.1,2.7
		c-0.1,1.4-0.8,2.6-2.3,2.6C143.7,169.8,143.2,169.4,143,169.1 M143,167.2c0,1,0.3,1.9,1.5,1.9c1.1,0,1.5-1,1.6-2c0-1-0.3-2-1.5-2
		C143.4,165.2,143,166.2,143,167.2"/>
	<polygon class="st0" points="34.1,169.7 33.3,169.7 33.3,165.4 30.7,165.4 30.7,169.7 29.9,169.7 29.9,164.6 34.1,164.6 	"/>
	<path class="st0" d="M118.8,164.6l-2.2,6.2c-0.3,0.8-0.8,1.3-1.6,1.4c-0.2,0-0.5,0-0.7-0.1l0-0.8c0.2,0.1,0.5,0.1,0.7,0.1
		c0.4-0.1,0.7-0.4,0.8-0.8l0.3-0.8l-2.1-5.1h0.9l1.6,4.1l1.5-4.1L118.8,164.6L118.8,164.6z"/>
	<path id="path3801_1_"  class="st1" d="M99.8,17.9c-8.2,0-21.7,0.4-29.6,1.3C59.4,20.5,55.1,26.1,54,36.3c-0.9,7.8-1.5,19.1-1.5,29.7c0,10.6,0.2,22,1.5,29.7
		c1.7,10.2,6.5,15.5,16.3,17.1c7.8,1.3,22.1,1.3,29.6,1.3c7.4,0,21.8,0,29.6-1.3c9.8-1.6,14.5-6.9,16.3-17.1
		c1.4-7.8,1.5-19.7,1.5-29.7c0-10.1-0.9-23.5-1.5-29.7c-1.1-10.6-5.6-15.7-16.3-17.2C121.6,18.1,108.1,17.9,99.8,17.9z M133.1,28.8
		c2.1,0.9,5.8,6.3,4.9,12.3c-4.1,3.3-9,5.7-13.8,6.4v38h14.1c0,5.8-0.9,10.5-1.9,12.2h-25.9V48.1h-18v29.6
		c0,14.9-8.4,22.3-19.1,22.3c-3,0-6.6-0.4-9.7-1.3c-1.4-2-2.1-7.7-2.3-14.9c7.1,3.5,16.8,5.1,17.6-6.1V50
		c-10.9,1.2-14.9,8.8-18.6,13.9c0.1-6.8,0.4-12.9,0.8-17.1C68.7,38.7,77,35,93.4,35h23.4C122.5,35,128,32.9,133.1,28.8z"/>
</g>
</svg>
